<svg width="33" height="33" viewBox="0 0 33 33" fill="none" xmlns="http://www.w3.org/2000/svg">
<path fill-rule="evenodd" clip-rule="evenodd" d="M32.9845 17.2224C32.9309 18.4657 32.7398 19.6733 32.4259 20.8304C23.1273 21.5556 15.592 20.264 9.48373 18.159C5.93668 16.9366 2.86581 15.4385 0.204473 13.895C0.374794 12.8211 0.648719 11.7817 1.01569 10.7874C4.17276 12.5153 7.92666 14.221 12.3644 15.4792C18.0605 17.0941 24.8711 17.9687 32.9845 17.2224ZM28.1623 28.1723C29.9218 26.4143 31.2862 24.2609 32.111 21.8569C22.8563 22.5265 15.3101 21.2245 9.15793 19.1044C5.70265 17.9137 2.69163 16.4663 0.0698896 14.9712C0.0236381 15.4746 0 15.9845 0 16.5C0 18.2948 0.286562 20.0226 0.816429 21.6403C2.30405 21.5978 3.85518 21.6163 5.46728 21.7143C12.0759 22.1159 19.6938 23.8522 28.1623 28.1723ZM27.3858 28.8998C19.1684 24.7614 11.7935 23.1006 5.40661 22.7124C3.94521 22.6236 2.53475 22.6013 1.17679 22.6314C3.61048 28.708 9.55402 33 16.5 33C20.6711 33 24.4807 31.4523 27.3858 28.8998ZM1.3932 9.85384C3.94982 4.05102 9.75183 0 16.5 0C25.5181 0 32.8465 7.2348 32.9976 16.2169C24.9595 16.9693 18.2383 16.1051 12.6372 14.5171C8.23822 13.2699 4.52264 11.5744 1.3932 9.85384Z" fill="#FF9F1C"/>
</svg>
